<?xml version="1.0" encoding="utf-8"?>
<!-- Generator: Adobe Illustrator 24.0.1, SVG Export Plug-In . SVG Version: 6.00 Build 0)  -->
<svg version="1.1" xmlns="http://www.w3.org/2000/svg" xmlns:xlink="http://www.w3.org/1999/xlink" x="0px" y="0px"
	 viewBox="0 0 200 200" style="enable-background:new 0 0 200 200;" xml:space="preserve">
<style type="text/css">
	.st0{fill:#E53935;}
</style>
<g id="Layer_1">
	<g>
		<g>
			<path class="st1" d="M11.02,99.67c2.06-3.52,4.49-8.22,7.28-14.1c2.79-5.88,5.52-11.98,8.19-18.29c2.3-5.34,7.1-8.01,14.38-8.01
				c3.4,0,5.76,0.3,7.1,0.91c1.33,0.61,2,1.58,2,2.91c0,0.73-0.24,1.88-0.73,3.46c-0.49,1.58-1.15,3.16-2,4.73
				c-2.18,4.37-3.28,8.07-3.28,11.1c0,1.82,0.64,3.82,1.91,6.01c1.27,2.18,3.24,4.91,5.92,8.19c3.88,5.1,6.82,9.44,8.83,13.01
				c2,3.58,3,7.49,3,11.74c0,1.21-0.12,2.91-0.36,5.1c5.64-2.19,12.22-7.83,19.73-16.91c-0.78-11.57-1.17-22.01-1.17-31.32v-6.37
				c0.12-4.12,1.15-6.94,3.09-8.46c1.94-1.52,5.1-2.27,9.46-2.27c3.15,0,5.49,0.7,7.01,2.09c1.52,1.4,2.28,3.73,2.28,7.01
				c0,13.95,0.85,32.09,2.55,54.42c4-8.49,7.7-16.62,11.1-24.39c3.39-7.76,7.34-17.71,11.83-29.85c1.33-3.64,2.94-6.1,4.82-7.37
				c1.88-1.27,4.09-1.91,6.64-1.91c3.4,0,5.94,0.7,7.64,2.09c1.7,1.4,2.55,3.73,2.55,7.01v28.21c0,12.13,0.06,20.87,0.18,26.21
				c5.58-9.71,10.16-18.14,13.74-25.3c3.58-7.16,7.61-16.8,12.1-28.94c1.33-3.64,3.09-6.1,5.28-7.37c1.91-1.11,4.24-1.74,6.99-1.88
				C173.59,27.41,139.53,4,100,4C45.88,4,2,47.88,2,102c0,3.28,0.16,6.51,0.48,9.71C5.99,107.1,8.84,103.08,11.02,99.67z"/>
		</g>
	</g>
</g>
<g id="Layer_2">
</g>
</svg>
